<svg width="20" height="20" viewBox="0 0 20 20" fill="none" xmlns="http://www.w3.org/2000/svg">
    <path fill-rule="evenodd" clip-rule="evenodd" d="M10 20C15.5228 20 20 15.5228 20 10C20 4.47715 15.5228 0 10 0C4.47715 0 0 4.47715 0 10C0 15.5228 4.47715 20 10 20ZM11 5C11 4.44772 10.5523 4 10 4C9.44771 4 9 4.44772 9 5V10C9 10.3344 9.1671 10.6466 9.4453 10.8321L12.4453 12.8321C12.9048 13.1384 13.5257 13.0142 13.8321 12.5547C14.1384 12.0952 14.0142 11.4743 13.5547 11.1679L11 9.46482V5Z"
        fill="#B4B1B1" />
</svg>
