<svg width="20" height="20" viewBox="0 0 20 20" fill="none" xmlns="http://www.w3.org/2000/svg">
<path fill-rule="evenodd" clip-rule="evenodd" d="M1.70615 5.15036C0.636844 5.93344 0 7.21307 0 8.57858V15.8153C0 18.1265 1.79086 20 4 20H16C18.2091 20 20 18.1265 20 15.8153V8.57858C20 7.21307 19.3632 5.93343 18.2938 5.15036L12.2938 0.756455C10.9166 -0.252153 9.08343 -0.252151 7.70615 0.756457L1.70615 5.15036ZM8 13C7.44772 13 7 13.4477 7 14C7 14.5523 7.44772 15 8 15H12C12.5523 15 13 14.5523 13 14C13 13.4477 12.5523 13 12 13H8Z" fill="#B4B1B1"/>
</svg>
