<svg width="20" height="20" viewBox="0 0 20 20" fill="none" xmlns="http://www.w3.org/2000/svg">
<path fill-rule="evenodd" clip-rule="evenodd" d="M3 0C1.34315 0 0 1.34315 0 3V5C0 6.65685 1.34315 8 3 8H5C6.65685 8 8 6.65685 8 5V3C8 1.34315 6.65685 0 5 0H3ZM3 12C1.34315 12 0 13.3431 0 15V17C0 18.6569 1.34315 20 3 20H5C6.65685 20 8 18.6569 8 17V15C8 13.3431 6.65685 12 5 12H3ZM12 3C12 1.34315 13.3431 0 15 0H17C18.6569 0 20 1.34315 20 3V5C20 6.65685 18.6569 8 17 8H15C13.3431 8 12 6.65685 12 5V3ZM15 12C13.3431 12 12 13.3431 12 15V17C12 18.6569 13.3431 20 15 20H17C18.6569 20 20 18.6569 20 17V15C20 13.3431 18.6569 12 17 12H15Z" fill="#B4B1B1"/>
</svg>
