<svg width="20" height="18" viewBox="0 0 20 18" fill="none" xmlns="http://www.w3.org/2000/svg">
<path fill-rule="evenodd" clip-rule="evenodd" d="M5.70711 0.292893C6.09763 0.683417 6.09763 1.31658 5.70711 1.70711L3.41421 4H11C11.5523 4 12 4.44772 12 5C12 5.55228 11.5523 6 11 6H3.41421L5.70711 8.29289C6.09763 8.68342 6.09763 9.31658 5.70711 9.70711C5.31658 10.0976 4.68342 10.0976 4.29289 9.70711L0.292893 5.70711C-0.0976311 5.31658 -0.0976311 4.68342 0.292893 4.29289L4.29289 0.292893C4.68342 -0.0976311 5.31658 -0.0976311 5.70711 0.292893ZM14.2929 17.7071C13.9024 17.3166 13.9024 16.6834 14.2929 16.2929L16.5858 14L9 14C8.44771 14 8 13.5523 8 13C8 12.4477 8.44772 12 9 12L16.5858 12L14.2929 9.70711C13.9024 9.31658 13.9024 8.68342 14.2929 8.29289C14.6834 7.90237 15.3166 7.90237 15.7071 8.29289L19.7071 12.2929C20.0976 12.6834 20.0976 13.3166 19.7071 13.7071L15.7071 17.7071C15.3166 18.0976 14.6834 18.0976 14.2929 17.7071Z" fill="#B4B1B1"/>
</svg>
