<svg width="20" height="18" viewBox="0 0 20 18" fill="none" xmlns="http://www.w3.org/2000/svg">
<path fill-rule="evenodd" clip-rule="evenodd" d="M0 4C0 1.79086 1.79086 0 4 0H16C18.2091 0 20 1.79086 20 4V5.5C20 5.77614 19.7761 6 19.5 6H14C12.3431 6 11 7.34315 11 9C11 10.6569 12.3431 12 14 12H19.5C19.7761 12 20 12.2239 20 12.5V14C20 16.2091 18.2091 18 16 18H4C1.79086 18 0 16.2091 0 14V4ZM14 11C15.1046 11 16 10.1046 16 9C16 7.89543 15.1046 7 14 7C12.8954 7 12 7.89543 12 9C12 10.1046 12.8954 11 14 11Z" fill="#B4B1B1"/>
</svg>
